<svg xmlns="http://www.w3.org/2000/svg" width="450" height="250" viewBox="0 0 450 250">
  <g id="bg_Error404" transform="translate(-486 -210)">
    <rect id="Rectangle_18491" data-name="Rectangle 18491" width="450" height="250" transform="translate(486 210)" fill="#fff"/>
    <g id="Group_46407" data-name="Group 46407" transform="translate(465.956 139.826)">
      <path id="Path_80858" data-name="Path 80858" d="M456.407,291.693s10.3-20.835-1.425-42.108c-17.278-31.356-25.65-50.158-12.588-80.292s7.536-90.164-53.233-77.352-131.471,56.253-202.3,21.3C116.182,78.363,80.389,98.3,74.5,159.155c-5.241,54.165-85.528,63.694-29.939,132.538Z" transform="translate(0 0)" fill="#f3fcfe"/>
      <g id="Group_46380" data-name="Group 46380" transform="translate(140.426 176.176)">
        <g id="Group_46377" data-name="Group 46377">
          <g id="Group_46376" data-name="Group 46376">
            <path id="Path_80859" data-name="Path 80859" d="M143.182,213.066s-5.861-6.037-.306-10.148,6.8-5.06,7.278-9.4,2.327-4.146,6.434-6.042,6.74-12.108,10.339-11.1,3.226.773.575,8.8,1.157,11.11-1.44,14.318-7.616,4.379-8.555,8.6-9.265,10.135-9.265,10.135Z" transform="translate(-140.484 -176.303)" fill="#359d9e"/>
          </g>
        </g>
        <path id="Path_80860" data-name="Path 80860" d="M146.132,217.307a.611.611,0,0,1-.022-.7l16.5-27.8a.414.414,0,0,1,.611-.188.581.581,0,0,1,.062.737l-16.5,27.8a.414.414,0,0,1-.611.188A.337.337,0,0,1,146.132,217.307Z" transform="translate(-140.486 -176.321)" fill="#215273"/>
        <g id="Group_46379" data-name="Group 46379" transform="translate(6.694 1.243)">
          <g id="Group_46378" data-name="Group 46378">
            <path id="Path_80861" data-name="Path 80861" d="M155.534,229.852s6.663-7.269,11.28-12.221,6.944-1.575,8.318-8.376,4.1-14.765,8.456-16.665,9.615-13.99,7.129-14.92-5.061,3.673-9.916,5.587-7.391-1.024-9.552,3.89-7.376,7.977-9.571,8.642-4.058,3.781-4.821,8.125-3.908,6.609-7.274,8.156-2.211,12.873-2.211,12.873Z" transform="translate(-147.181 -177.547)" fill="#7ce496"/>
          </g>
        </g>
      </g>
      <g id="Group_46382" data-name="Group 46382" transform="translate(55.561 145.793)">
        <g id="Group_46381" data-name="Group 46381">
          <path id="Path_80862" data-name="Path 80862" d="M55.576,267.153V242.346l68.792-96.471H155.1v95.41h18.725v25.868H155.1V297.26H126.2V267.153Zm72.863-86.294L84.884,241.285h43.555Z" transform="translate(-55.576 -145.875)" fill="#19c19d"/>
        </g>
      </g>
      <g id="Group_46384" data-name="Group 46384" transform="translate(196.637 144.883)">
        <g id="Group_46383" data-name="Group 46383" transform="translate(0 0)">
          <path id="Path_80863" data-name="Path 80863" d="M207.333,200.958q28.013-70.553,74.316-52.208,24.523,9.718,27.816,32.92t-9.7,55.918Q286.7,270.5,268.381,285.14t-42.839,4.92Q179.24,271.712,207.333,200.958Zm68.6,27.183q8.451-21.285,8.485-34.615t-13.172-18.564q-13.376-5.3-22.5,4.428T231.17,210.4q-8.531,21.484-8.564,34.813t13.343,18.631q13.2,5.233,22.328-4.494T275.929,228.141Z" transform="translate(-196.724 -144.964)" fill="#19c19d"/>
        </g>
      </g>
      <g id="Group_46386" data-name="Group 46386" transform="translate(309.866 143.62)">
        <g id="Group_46385" data-name="Group 46385">
          <path id="Path_80864" data-name="Path 80864" d="M310.009,264.977V240.171L378.8,143.7h30.733V239.11h18.724v25.867H409.535v30.108h-28.9V264.977Zm72.863-86.294L339.316,239.11h43.556Z" transform="translate(-310.009 -143.699)" fill="#19c19d"/>
        </g>
      </g>
      <g id="Group_46387" data-name="Group 46387" transform="translate(82.669 253.305)">
        <path id="Path_80865" data-name="Path 80865" d="M114.718,287.2l-12.563.336v.031l-.5-.021-.5.021v-.031L88.583,287.2l1.208-4.093,1.513-5.163,1.313-4.46,1.177-4.019,1.576-5.342,3.109-10.578h6.345l3.109,10.578,1.576,5.342,1.176,4.019,1.313,4.46,1.513,5.163.2.661Z" transform="translate(-82.701 -253.546)" fill="#f8bf2c"/>
        <path id="Path_80866" data-name="Path 80866" d="M109.51,269.481H93.8l1.576-5.341h12.563Z" transform="translate(-82.704 -253.562)" fill="#fff"/>
        <path id="Path_80867" data-name="Path 80867" d="M112,277.974H91.305l1.313-4.46h18.067Z" transform="translate(-82.702 -253.575)" fill="#fff"/>
        <path id="Path_80868" data-name="Path 80868" d="M114.718,287.244l-12.563.336v.031h-1.009v-.031l-12.563-.336,1.208-4.093H113.51Z" transform="translate(-82.701 -253.589)" fill="#fff"/>
        <path id="Path_80869" data-name="Path 80869" d="M114.718,287.2l-12.564.336v.032l-.5-.021-.5.021v-.032L88.583,287.2l1.208-4.093,1.512-5.162,1.313-4.46,1.176-4.019,1.575-5.342,3.109-10.577H100.7c-4,10.567-8.351,28.4,7.29,29.561,1.848.137,3.771.367,5.714.661Z" transform="translate(-82.701 -253.546)" fill="#ff6d33" opacity="0.29"/>
        <path id="Path_80870" data-name="Path 80870" d="M120.6,288.224v1.753a2.1,2.1,0,0,1-2.1,2H84.8a2.1,2.1,0,0,1-2.1-2v-1.753a2.1,2.1,0,0,1,2.1-2.1h33.7A2.105,2.105,0,0,1,120.6,288.224Z" transform="translate(-82.698 -253.594)" fill="#ff8533"/>
        <path id="Path_80871" data-name="Path 80871" d="M120.6,289.983a2.1,2.1,0,0,1-2.1,2H84.8a2.094,2.094,0,0,1-2.1-2Z" transform="translate(-82.698 -253.599)" fill="#e55c2c" opacity="0.29"/>
      </g>
      <g id="Group_46391" data-name="Group 46391" transform="translate(329.992 254.197)">
        <path id="Path_80872" data-name="Path 80872" d="M351.123,254.439s-2.1-.088-.788,2.711,1.319,5.509.178,7.345-.124,4.023.112,5.422-3,4.7-2.916,6.5,0,14.222,0,14.222,5.867-.875,6.3-1.049,3.939-5.247,2.013-9.445-2.977-4.81-1.313-9.707-1.75-5.159-1.312-7.87-.3-3.586-1.246-5.16A7.286,7.286,0,0,1,351.123,254.439Z" transform="translate(-330.155 -254.439)" fill="#215273"/>
        <g id="Group_46388" data-name="Group 46388" transform="translate(10.536 2.116)">
          <path id="Path_80873" data-name="Path 80873" d="M342.191,265.2c-1.75,4.285,2.189,4.11,1.051,7.7s2.889,4.373,1.4,8.745c-1.145,3.365.149,8.23.808,10.3h5.66c-.073-1.517-.6-11.709-1.62-12.923a4.709,4.709,0,0,1-.822-4.81c.613-2.011-.35-3.235-2.1-4.722s-.613-1.4-.778-5.159-2.461-6.034-4.562-7.521S343.942,260.913,342.191,265.2Z" transform="translate(-340.687 -256.558)" fill="#359d9e"/>
        </g>
        <g id="Group_46389" data-name="Group 46389" transform="translate(0 11.075)">
          <path id="Path_80874" data-name="Path 80874" d="M335.945,279.016c.526,2.029-1.4,5.353.962,6.752s2.8.263,4.027,2.623c.746,1.437,1.2,2.736,1.657,3.56h5.824c-.164-1.612-.868-6.324-3.542-7.407-3.238-1.312-4.552-1.487-4.552-4.547s.613-4.111-.876-5.073-2.8-1.4-3.413-3.061-.088-2.274-1.488-3.061a12.779,12.779,0,0,1-3.764-3.147c-.526-.875-1.488,3.06.962,5.246s2.539,2.012,2.539,4.723S335.42,276.986,335.945,279.016Z" transform="translate(-330.146 -265.53)" fill="#7ce496"/>
        </g>
        <g id="Group_46390" data-name="Group 46390" transform="translate(19.34 5.3)">
          <path id="Path_80875" data-name="Path 80875" d="M362.067,272.985c-1.313-2.8,3.238-12.506.525-13.2s-2.626,9.532-4.026,11.107-2.451,1.66-2.977,6.645-2.013,5.6-4.9,8.133c-1.992,1.749-1.03,4.661-.383,6.277h4.849c.643-.587,1.462-1.355,2.362-2.254,2.013-2.011,1.575-5.6.963-6.821S363.38,275.784,362.067,272.985Z" transform="translate(-349.495 -259.747)" fill="#7ce496"/>
        </g>
      </g>
      <g id="Group_46395" data-name="Group 46395" transform="translate(190.684 265.292)">
        <g id="Group_46392" data-name="Group 46392" transform="translate(19.545)">
          <path id="Path_80876" data-name="Path 80876" d="M220.8,292.93s-12.5-3.363-10.2-14.841,2.692-13.311,3.217-12.3,3.545,9.214,6.237,11.51a14.321,14.321,0,0,1,4.267,9.969c-.2,2.754-2.823,5.659-2.823,5.659Z" transform="translate(-210.322 -265.55)" fill="#359d9e"/>
        </g>
        <g id="Group_46393" data-name="Group 46393" transform="translate(0 3.093)">
          <path id="Path_80877" data-name="Path 80877" d="M210.312,292.934s-11.141,1.293-13.308-5.2-2.823-11.871-3.742-14.5a17.382,17.382,0,0,0-2.495-4.591s16.545,3.674,20.353,11.085,3.545,12.79,3.545,12.79Z" transform="translate(-190.767 -268.648)" fill="#7ce496"/>
        </g>
        <path id="Path_80878" data-name="Path 80878" d="M220.8,293.2a.263.263,0,0,1-.253-.193c-.018-.064-1.751-6.365-3.466-11.283a55.754,55.754,0,0,0-3.36-7.9.263.263,0,1,1,.46-.254,56.468,56.468,0,0,1,3.4,7.977c1.72,4.935,3.458,11.253,3.476,11.315a.264.264,0,0,1-.184.324A.279.279,0,0,1,220.8,293.2Z" transform="translate(-190.779 -265.562)" fill="#215273"/>
        <g id="Group_46394" data-name="Group 46394" transform="translate(7.156 9.259)">
          <path id="Path_80879" data-name="Path 80879" d="M214.669,292.794a.282.282,0,0,1-.106-.021,29.552,29.552,0,0,1-9.086-6.626,79.065,79.065,0,0,1-7.515-10.932.263.263,0,1,1,.458-.259,78.4,78.4,0,0,0,7.452,10.844,28.924,28.924,0,0,0,8.9,6.491.263.263,0,0,1,.135.346A.261.261,0,0,1,214.669,292.794Z" transform="translate(-197.927 -274.823)" fill="#359d9e"/>
        </g>
      </g>
      <g id="Group_46397" data-name="Group 46397" transform="translate(428.127 262.604)">
        <path id="Path_80880" data-name="Path 80880" d="M437.332,291.947c2.041-1.387,9.329-6.539,12.922-11.774,4.2-6.122,1.75-17.315,1.75-17.315a46.221,46.221,0,0,0-1.926,4.547c-.875,2.448-2.976,1.049-7.177,4.985s-5.252,7.958-9.888,9.708c-4.052,1.528-4.608,8.194-4.684,9.849Z" transform="translate(-428.33 -262.858)" fill="#215273"/>
        <g id="Group_46396" data-name="Group 46396" transform="translate(4.728 5.612)">
          <path id="Path_80881" data-name="Path 80881" d="M459.361,269.512c-6.3,2.448-2.976,6.821-10.33,6.767s-3.326,7.75-9.8,8.45c-5.009.541-5.981,5.155-6.167,7.226H445.8q.8-.633,1.827-1.455c2.627-2.1,7.878-5.946,7.178-8.92s7.527-3.323,9.453-7.87S465.664,267.064,459.361,269.512Z" transform="translate(-433.06 -268.478)" fill="#359d9e"/>
        </g>
      </g>
      <g id="Group_46399" data-name="Group 46399" transform="translate(44.561 249.071)">
        <path id="Path_80882" data-name="Path 80882" d="M45.473,286.493c-1.005,2.854.082,4.492,1.713,5.434h14.75c.9-2.674,3.093-9.928,1.394-12.827-2.1-3.586,1.926-8.133,2.156-12.263s-5.657-3.391-8.809-10.851-2.626-7.582-6.828-5.58.525,10.941-2.1,15.3-4.552,5.608-1.926,8.931S47.923,279.537,45.473,286.493Z" transform="translate(-44.571 -249.305)" fill="#215273"/>
        <path id="Path_80883" data-name="Path 80883" d="M59.225,291.945,55.557,262a.518.518,0,0,0-.585-.457.525.525,0,0,0-.458.584l3.652,29.817Z" transform="translate(-44.576 -249.323)" fill="#1b4156"/>
        <g id="Group_46398" data-name="Group 46398" transform="translate(12.81 9.717)">
          <path id="Path_80884" data-name="Path 80884" d="M75.1,259.044c-2.052.263-2.314,3.119-5.071,5.364s-5.515,1.589-5.383,4.474-2.495,5.765-3.808,6.686-1.575,2.89-.657,5.119-.525,4.161-2.363,5.819c-1.274,1.148.54,3.869,1.775,5.434h8.832c.747-1.745,2.192-5.115,3.311-7.665,1.575-3.589,4.333-2.67,3.019-6.212s-2.069-8,.345-10.1S77.155,258.781,75.1,259.044Z" transform="translate(-57.387 -259.037)" fill="#359d9e"/>
        </g>
      </g>
      <rect id="Rectangle_22649" data-name="Rectangle 22649" width="440" height="20" transform="translate(25.044 290.173)" fill="#fff"/>
      <g id="Group_46406" data-name="Group 46406" transform="translate(80.389 165.155)">
        <g id="Group_46403" data-name="Group 46403">
          <g id="Group_46401" data-name="Group 46401">
            <path id="Path_80885" data-name="Path 80885" d="M135.7,195.58a24.927,24.927,0,0,1-20.358,24.483,23.8,23.8,0,0,1-3.256.4c-.441.022-.893.032-1.344.032a24.66,24.66,0,0,1-11.754-2.949,23.057,23.057,0,0,1-3.014-1.889,25.376,25.376,0,0,1-2.91-2.5,24.908,24.908,0,0,1,16.124-42.448c.515-.032,1.029-.053,1.554-.053a24.905,24.905,0,0,1,8.646,1.543,22.779,22.779,0,0,1,3.34,1.522,23.025,23.025,0,0,1,2.321,1.438,25.053,25.053,0,0,1,8.562,10.421,24.044,24.044,0,0,1,1.365,4.029A24.852,24.852,0,0,1,135.7,195.58Z" transform="translate(-80.42 -165.274)" fill="#a2e4ea" opacity="0.25"/>
            <path id="Path_80886" data-name="Path 80886" d="M121.824,212.736a23.8,23.8,0,0,1-3.256.4c-.441.021-.893.032-1.344.032a24.661,24.661,0,0,1-11.754-2.949,23.057,23.057,0,0,1-3.014-1.889,25.288,25.288,0,0,1-2.91-2.5,24.9,24.9,0,0,1-3.92-30.056,24.879,24.879,0,0,0-2.558,37.391,25.377,25.377,0,0,0,2.91,2.5,23.057,23.057,0,0,0,3.014,1.889,24.66,24.66,0,0,0,11.754,2.949c.452,0,.9-.01,1.344-.032a23.805,23.805,0,0,0,3.256-.4,24.973,24.973,0,0,0,17.024-12.049A24.829,24.829,0,0,1,121.824,212.736Z" transform="translate(-80.42 -165.281)" fill="#83d2d6" opacity="0.25"/>
            <rect id="Rectangle_22650" data-name="Rectangle 22650" width="3.612" height="5.808" transform="matrix(0.647, -0.763, 0.763, 0.647, 51.681, 49.687)" fill="#2a274f"/>
            <path id="Path_80887" data-name="Path 80887" d="M184.731,252.177l-1.355,1.763a2.066,2.066,0,0,1-1.407.818,2.117,2.117,0,0,1-1.533-.419l-44.6-34.053a2.1,2.1,0,0,1-.389-2.939l.084-.1,1.271-1.669a2.087,2.087,0,0,1,2.942-.388l17.216,13.139,6.04,4.617,1.218.924,19.653,15.007.473.356A2.113,2.113,0,0,1,184.731,252.177Z" transform="translate(-80.444 -165.339)" fill="#635f77"/>
            <path id="Path_80888" data-name="Path 80888" d="M110.743,165.266a30.3,30.3,0,1,0,30.337,30.306A30.319,30.319,0,0,0,110.743,165.266Zm0,55.22A24.918,24.918,0,1,1,135.7,195.572,24.936,24.936,0,0,1,110.743,220.486Z" transform="translate(-80.417 -165.266)" fill="#4f4765"/>
            <path id="Path_80889" data-name="Path 80889" d="M110.744,168.6a26.976,26.976,0,1,0,26.838,26.98A26.908,26.908,0,0,0,110.744,168.6Zm0,51.893A24.918,24.918,0,1,1,135.7,195.577,24.936,24.936,0,0,1,110.744,220.491Z" transform="translate(-80.419 -165.271)" fill="#635f77"/>
            <path id="Path_80890" data-name="Path 80890" d="M181.968,254.762a2.117,2.117,0,0,1-1.533-.419l-44.6-34.053a2.1,2.1,0,0,1-.389-2.939l.084-.1c3.96,3.3,17.227,13.874,21.429,11.082l6.04,4.617c-1.071,1.228-2.795,3.327-1.66,4.156.778.577,1.786-1.5,2.879-3.232l19.653,15.007C182.683,250.712,181.307,253.461,181.968,254.762Z" transform="translate(-80.444 -165.342)" fill="#4f4765"/>
            <g id="Group_46400" data-name="Group 46400" transform="translate(6.471 5.383)" opacity="0.41">
              <path id="Path_80891" data-name="Path 80891" d="M119.392,172.2,93.068,213.158a24.841,24.841,0,0,1-6.177-10.274l22.3-32.175c.515-.032,1.029-.053,1.554-.053A24.906,24.906,0,0,1,119.392,172.2Z" transform="translate(-86.891 -170.657)" fill="#fff"/>
              <path id="Path_80892" data-name="Path 80892" d="M125.057,175.164,99,217.549a23.057,23.057,0,0,1-3.014-1.889l26.755-41.934A23.028,23.028,0,0,1,125.057,175.164Z" transform="translate(-86.896 -170.661)" fill="#fff"/>
              <path id="Path_80893" data-name="Path 80893" d="M134.992,189.631l-19.633,30.454a23.808,23.808,0,0,1-3.256.4L133.627,185.6A24.045,24.045,0,0,1,134.992,189.631Z" transform="translate(-86.904 -170.679)" fill="#fff"/>
            </g>
          </g>
          <g id="Group_46402" data-name="Group 46402" transform="translate(59.596 39.783)">
            <path id="Path_80894" data-name="Path 80894" d="M161.34,231.884s-5.966,6.8-7.226,6a35.658,35.658,0,0,1-5.305-5.31c-.052-.063-.084-.095-.084-.095-1.113-1.374-2.826-3.935-3.582-4.564s-3.445-.777-4.559-2.519-.294-1.679.557-1.018,3.614,1.836,3.519,1.018.252-1.606.851-1.018.62,1.438,1.344,2.455,6.985,6.821,7.511,6.559a52.84,52.84,0,0,0,3.907-3.757c.4-.4.662-.671.662-.671Z" transform="translate(-140.043 -205.135)" fill="#ffbf9f"/>
            <path id="Path_80895" data-name="Path 80895" d="M181.7,245.819l-1.071-4c0-.01,0-.021-.011-.021l-.094-.356s1.974-1.49,2.016-2.362a45.145,45.145,0,0,0-1.638-5.95c-.221-.7-.378-1.175-.378-1.175l3.8-1.93s1.712,6.212,2.1,8.006S181.7,245.819,181.7,245.819Z" transform="translate(-140.064 -205.144)" fill="#ffbf9f"/>
            <path id="Path_80896" data-name="Path 80896" d="M148.813,232.585a30.152,30.152,0,0,0,3.918,3.61c2.059,1.5,3.939-.461,5.673-2.36,1.249-1.365.43-3.243-.127-4.188.4-.4.662-.671.662-.671l2.406,2.917s-5.966,6.8-7.226,6A35.661,35.661,0,0,1,148.813,232.585Z" transform="translate(-140.048 -205.142)" fill="#ed8772" opacity="0.4"/>
            <path id="Path_80897" data-name="Path 80897" d="M181.7,245.819l-1.071-4c.4.693,1.071,1.018,2.195.274,2.963-1.963,1.355-3.013,1.565-3.862s1.092-1.049.252-3.809c-.588-1.92-2.584-1.637-3.739-1.291-.221-.7-.378-1.175-.378-1.175l3.8-1.93s1.712,6.212,2.1,8.006S181.7,245.819,181.7,245.819Z" transform="translate(-140.064 -205.144)" fill="#ed8772" opacity="0.4"/>
            <path id="Path_80898" data-name="Path 80898" d="M170.994,271.144a32.8,32.8,0,0,0-.431,7.378c.032,3.116-.389,7.577-.494,10.63s-1.512,15.436-1.439,17.011a6.763,6.763,0,0,0,.1.976c.126.766.337,1.343.358,1.815a1.107,1.107,0,0,1-.042.462c-.137.419-1.754.5-3.4.5-1.092,0-2.206-.042-2.931-.042-1.806,0-2.752-.2-2.363-1.017.315-.64,2.983-1.752,4.506-3.044h.011a3.62,3.62,0,0,0,.935-1.091c.788-1.711-2.038-31.02-2.143-33.056a8.846,8.846,0,0,1,.1-1.773c.032-.221.063-.43.1-.619a12.071,12.071,0,0,1,.421-1.543l7.353,1.017S171.424,269.475,170.994,271.144Z" transform="translate(-140.054 -205.199)" fill="#ffbf9f"/>
            <path id="Path_80899" data-name="Path 80899" d="M171,271.144a32.8,32.8,0,0,0-.431,7.378c.032,3.116-.389,7.577-.494,10.63s-1.512,15.436-1.439,17.011a6.754,6.754,0,0,0,.1.976c.126.766.337,1.343.358,1.815a1.107,1.107,0,0,1-.042.462c-.137.419-1.754.5-3.4.5a1.5,1.5,0,0,1,.3-1.5c1.86-2.078,1.691-29.016.778-31.241s1.176-3.147,1.3-5.12c.074-1.123-2.153-2.11-4.16-2.781a12.07,12.07,0,0,1,.421-1.543l7.353,1.017S171.426,269.475,171,271.144Z" transform="translate(-140.055 -205.199)" fill="#ed8772" opacity="0.4"/>
            <path id="Path_80900" data-name="Path 80900" d="M186.1,307.81a8.056,8.056,0,0,1-1.376.65c-1.764.7-5.84.83-6.586-.042a.481.481,0,0,1-.116-.346c.137-1.206,4.255-2.224,5.052-4.008l.011-.011c.021-.063.042-.115.063-.178.588-1.91-6.828-29.583-7.416-31.42a7,7,0,0,1-.263-2.067,14.656,14.656,0,0,1,.263-2.655l6.566-.735a14.539,14.539,0,0,0-.4,2.96c.074.987.852,3.347,1.712,6.821s1.513,18.564,1.9,21.062c.346,2.225.178,3.987.8,6.107.074.252.158.514.253.777C187.209,306.509,187,307.254,186.1,307.81Z" transform="translate(-140.061 -205.198)" fill="#ffbf9f"/>
            <path id="Path_80901" data-name="Path 80901" d="M186.1,307.81c.273-.189-2.637-33.382-4.895-34.83-1.849-1.176-4.381-2.54-5.736-2.592a14.656,14.656,0,0,1,.263-2.655l6.566-.735a14.539,14.539,0,0,0-.4,2.96c.074.987.852,3.347,1.712,6.821s1.513,18.564,1.9,21.062c.346,2.225.178,3.987.8,6.107.074.252.158.514.253.777C187.209,306.509,187,307.254,186.1,307.81Z" transform="translate(-140.061 -205.198)" fill="#ed8772" opacity="0.4"/>
            <path id="Path_80902" data-name="Path 80902" d="M167.527,208.7s-1.5,6.176.732,7.487,3.589.963,2.846,5.116,3.939.962,3.9.262-.525-4.022,0-6.077-.808-4.635-3.292-5.685A12.967,12.967,0,0,0,167.527,208.7Z" transform="translate(-140.057 -205.112)" fill="#ffbf9f"/>
            <path id="Path_80903" data-name="Path 80903" d="M184.375,230.86a7.179,7.179,0,0,0-.893.514,5.9,5.9,0,0,1-2.973.566s.094,1.207.241,2.991c0,.032.011.064.011.095.4,4.68,1.113,13.16,1.239,14.23.031.263-.126.451-.41.577-1.323.619-5.5-.063-7.206-.493-2.058-.524-8.182.609-9.064.609s.441-20.768.136-21.46-2.668,3.316-3.245,3.673c-.441.263-1.88-.987-2.931-2.278a9.079,9.079,0,0,1-.788-1.133c-.873-1.532,5.472-6.558,6.523-7.745s4.023-1.311,5.336-1.269a14.043,14.043,0,0,1,2.679.4,4.985,4.985,0,0,0,1.659-.4c.526-.316,4.686-.263,5.862.619s3.939,8.7,4.338,9.486C185.153,230.377,184.89,230.567,184.375,230.86Z" transform="translate(-140.053 -205.128)" fill="#ffa733"/>
            <path id="Path_80904" data-name="Path 80904" d="M182.791,267.665c-.1.357-1.607.745-3.266,1.038a26.07,26.07,0,0,1-4.486.535c-.567-.137-1.009-5.027-1.009-5.027a49.776,49.776,0,0,1-1.092,5.068c-.3.567-8.487-.4-9.149-.7s1.534-18.585,1.534-18.585c.883,0,7.006-1.133,9.064-.609,1.7.43,5.883,1.112,7.206.493C181.594,249.877,183.012,266.878,182.791,267.665Z" transform="translate(-140.055 -205.172)" fill="#2a274f"/>
            <path id="Path_80905" data-name="Path 80905" d="M179.53,268.715a26.068,26.068,0,0,1-4.486.535c-.567-.137-1.008-5.027-1.008-5.027l1.229-7S175.769,267.183,179.53,268.715Z" transform="translate(-140.061 -205.184)" fill="#121c2d"/>
            <path id="Path_80906" data-name="Path 80906" d="M168.735,307.195c.179,1.029.494,1.742.316,2.278-.221.692-4.528.461-6.335.461s-2.752-.2-2.363-1.018c.315-.64,2.983-1.752,4.506-3.043h.011s1.943-.483,1.092.619S168.735,307.195,168.735,307.195Z" transform="translate(-140.054 -205.255)" fill="#2a274f"/>
            <path id="Path_80907" data-name="Path 80907" d="M184.721,308.514c-1.974.788-6.828.851-6.7-.388.137-1.206,4.255-2.224,5.052-4.008l.011-.011c.126-.042,1.186-.44.935.714-.262,1.228,1.817.031,2.29-.819.074.252.158.514.253.777C187.473,307.266,186.7,307.728,184.721,308.514Z" transform="translate(-140.063 -205.253)" fill="#2a274f"/>
            <path id="Path_80908" data-name="Path 80908" d="M168.105,205.169a2.5,2.5,0,0,0-1.28,2c.033,1.278,1.083,1.836,1.674,2.263a7.277,7.277,0,0,1,2,2.82,1.122,1.122,0,0,0,1.2.919c.4,0,.3.984-.154,1.443s-.723.426-.394,1.082,2.79,2.1,3.577,1.64,3.447-5.116,2.66-7.051-3.611-2.821-4.728-3.608a7.548,7.548,0,0,0-2.1-1.312A5.393,5.393,0,0,0,168.105,205.169Z" transform="translate(-140.057 -205.107)" fill="#1c2b49"/>
            <path id="Path_80909" data-name="Path 80909" d="M178.135,308.478c4.076-.262,7.836-.524,7.962-.608a8.062,8.062,0,0,1-1.376.65C182.957,309.224,178.881,309.35,178.135,308.478Z" transform="translate(-140.063 -205.258)" fill="#2a274f"/>
            <path id="Path_80910" data-name="Path 80910" d="M165.457,228.5c-.3-.7-2.668,3.316-3.245,3.673-.441.263-1.88-.987-2.931-2.278l.284-.168a5.293,5.293,0,0,0,4.1-1.606C165.342,226.286,165.457,228.5,165.457,228.5Z" transform="translate(-140.053 -205.14)" fill="#ff6d33"/>
            <path id="Path_80911" data-name="Path 80911" d="M184.385,230.869a7.173,7.173,0,0,0-.893.514,5.9,5.9,0,0,1-2.973.566l-1.25-6.516S181.035,231.488,184.385,230.869Z" transform="translate(-140.063 -205.137)" fill="#ff6d33"/>
          </g>
        </g>
        <g id="Group_46404" data-name="Group 46404" transform="translate(134.271 38.079)">
          <path id="Path_80912" data-name="Path 80912" d="M234.647,215.106s-2.558-2.385-3.214-4.659.269-4.591,2.41-4.854a17.176,17.176,0,0,0,5.468-1.967,1.951,1.951,0,0,1,2.8,1.967,3.394,3.394,0,0,1-1.362,2.461s-2.982,5.5-3.82,6.557A2.082,2.082,0,0,1,234.647,215.106Z" transform="translate(-214.764 -203.402)" fill="#1c2b49"/>
          <path id="Path_80913" data-name="Path 80913" d="M223.021,310.236c-1.575,1.133-7.436-2.455-8.1-3.589-.609-1.059.578-3.085,1.586-4.019l.211-.179c1.05-.829,2.573-5.225,2.573-5.225l3.382,1.731s-1.27,2.225-1.67,2.707a4.423,4.423,0,0,0-1.029,3.053,2.553,2.553,0,0,0,.683,1.407C222.275,307.875,224.6,309.1,223.021,310.236Z" transform="translate(-214.756 -203.54)" fill="#ed8772"/>
          <path id="Path_80914" data-name="Path 80914" d="M241.491,310.062c-.8-.263-.379-1.879-.116-4.019.021-.169.031-.346.053-.535a46.209,46.209,0,0,0-.053-5.373,28.715,28.715,0,0,1,3.8,0,17.405,17.405,0,0,0,.6,5.436,1.855,1.855,0,0,0,.274.556c.788.966,4.338,1.448,5,3.232S242.288,310.325,241.491,310.062Z" transform="translate(-214.769 -203.544)" fill="#ed8772"/>
          <path id="Path_80915" data-name="Path 80915" d="M223.021,310.244c-1.575,1.133-7.436-2.455-8.1-3.589-.609-1.059.578-3.085,1.586-4.019.042,1.2.347,2.351,1.439,1.878a1.979,1.979,0,0,1,2.028.21,2.553,2.553,0,0,0,.683,1.407C222.275,307.883,224.6,309.11,223.021,310.244Z" transform="translate(-214.756 -203.548)" fill="#34d67d"/>
          <path id="Path_80916" data-name="Path 80916" d="M241.491,310.07c-.8-.263-.379-1.879-.116-4.019.021-.169.031-.346.053-.535.693.724,1.775,1.322,2.531.493a2.24,2.24,0,0,1,1.817-.43,1.854,1.854,0,0,0,.274.556c.788.966,4.338,1.448,5,3.232S242.288,310.333,241.491,310.07Z" transform="translate(-214.769 -203.552)" fill="#34d67d"/>
          <path id="Path_80917" data-name="Path 80917" d="M246.4,299.976c-.4,1.248-3.939,1.049-5.052.913-1-.116-.641-19.131-.641-24.525v-.031c0-.651-.011-1.091-.021-1.28-.011-.095-.021-.211-.042-.346l-.011-.042c-.431-2.31-3.035-9.582-3.035-9.582a67.327,67.327,0,0,1-1.7,9.54c-.987,3.033-11.68,24.766-12.342,25.615s-3.677-1.574-4.265-2.56,8.2-21.45,9.517-24.724,0-24.136,0-24.136l16.04.44s2.731,22.321,2.931,24.346S246.794,298.726,246.4,299.976Z" transform="translate(-214.758 -203.468)" fill="#2a274f"/>
          <path id="Path_80918" data-name="Path 80918" d="M245.884,229.756s6.958,9.445,9.519,8.133,9.585-11.347,10.7-12.265,2.43-1.9,2.1-2.952-1.115-1.574-2.035,0-9.913,10.035-10.242,9.773-5-5.587-5-5.587Z" transform="translate(-214.772 -203.428)" fill="#d17061"/>
          <path id="Path_80919" data-name="Path 80919" d="M252.049,226.208l-3.645,2.1-2.531,1.448s-.085,4.345-.169,8.847c-.094,4.459-.189,9.078-.231,9.77a1.716,1.716,0,0,1-.052.367c-.221.85-1.25.231-5.063.882a30,30,0,0,1-11.554-.85c-1.345-.514,1.176-17.18,1.3-18.008v-.01c-.032.042-.147.21-.515.766-.526.787-5.315-.85-5.841-1.238s2.753-8.794,3.214-9.518c.452-.7,7.343-3.222,7.668-3.337v.01c-.084.137-.536.892-.115,1.427.452.588,2.027.788,3.35.525s.589-1.973.589-1.973a64.318,64.318,0,0,1,6.691,1.322C246.986,219.324,252.049,226.208,252.049,226.208Z" transform="translate(-214.76 -203.422)" fill="#34d67d"/>
          <path id="Path_80920" data-name="Path 80920" d="M240.638,274.673c-.431-2.31-3.036-9.582-3.036-9.582l2.238-10.168Z" transform="translate(-214.767 -203.477)" fill="#121c2d"/>
          <path id="Path_80921" data-name="Path 80921" d="M240.395,214.976c-1.145,1.417-1.839,1.375-1.839,1.375l-.094,1.049s.725,1.71-.589,1.973-2.9.063-3.35-.525c-.421-.535.031-1.29.115-1.427v-.01l.011-.011v-2.288s1.218-.524.82-1.448-2-1.805-1.544-2.75,1.051-.263,1.051-.263,0-1.374.924-1.448,2.564.231,3.708-.451l1.145-.692S241.55,213.57,240.395,214.976Z" transform="translate(-214.765 -203.408)" fill="#ed8772"/>
          <path id="Path_80922" data-name="Path 80922" d="M235.308,214.628s.657,1.476,1.871,1.541a3.652,3.652,0,0,1,1.377.192l-.094,1.049s-1.972.661-2.432-.421A14.457,14.457,0,0,1,235.308,214.628Z" transform="translate(-214.766 -203.418)" fill="#d17061"/>
          <path id="Path_80923" data-name="Path 80923" d="M245.706,238.613a.032.032,0,0,0-.01.021s-8.677,3.326-8.1,6.391c.483,2.55,5.536,3.526,7.826,3.725-.221.85-1.25.231-5.063.882a30,30,0,0,1-11.554-.85c-1.345-.514,1.176-17.18,1.3-18.008v-.01a.034.034,0,0,0,.01-.021l1.408-4.261c-.8,2.686-2.143,8.521,1.449,8.217,4.643-.377,12.553-5.771,12.9-7.251s.441-2.278.441-2.278.494,2.434,2.09,3.148a2.425,2.425,0,0,0,1.744.084C253.071,227.552,246.074,238.067,245.706,238.613Z" transform="translate(-214.763 -203.434)" fill="#2eb769"/>
          <path id="Path_80924" data-name="Path 80924" d="M234.786,243.413l34.034-21.594a9.828,9.828,0,0,0,15.592-8.857l0,0-8.6,5.455-4.226-2.024-.037-4.681,8.6-5.455h.005A9.827,9.827,0,0,0,265.5,216.595l-34.034,21.594a9.828,9.828,0,0,0-15.592,8.857l0-.005,8.6-5.455,4.226,2.024.036,4.681-8.6,5.455h-.006a9.827,9.827,0,0,0,14.655-10.332Z" transform="translate(-214.756 -203.404)" fill="#4f4765"/>
          <path id="Path_80925" data-name="Path 80925" d="M223.747,230.294s-3.677,10.1-1.313,10.3,14.837-2.23,16.806-1.64,4.137.459,4.793-.722,0-1.246-1.115-1.114-2.692.2-2.233-.263,1.313-1.563.46-1.4-2.363,1.535-3.61,1.535-10.439.591-10.177-.787a44.634,44.634,0,0,1,1.372-4.454Z" transform="translate(-214.759 -203.441)" fill="#ed8772"/>
        </g>
        <g id="Group_46405" data-name="Group 46405" transform="translate(276.964 25.667)">
          <path id="Path_80926" data-name="Path 80926" d="M411.124,207.736s-1.582-1.706-.707-2.449a1.564,1.564,0,0,1,1.575-.437s.044-1.968,3.37-2.143,4.026,1.268,4.026,1.268,4.2-2.929,5.647,2.252-.044,9.773,1.093,10.822,5.165,5.51,3.9,8.526-1.094,5.115-2.408,3.148-8.535-13.206-8.535-13.206a4.7,4.7,0,0,1,1.128-2.711c1.06-1.136-.823-4.853-.823-4.853s.57,6.078-2.582,6.558S411.124,207.736,411.124,207.736Z" transform="translate(-357.547 -190.988)" fill="#1c2b49"/>
          <path id="Path_80927" data-name="Path 80927" d="M411.172,207.335s-.657,4.952.2,5.968a2.3,2.3,0,0,0,1.674.984l-.131.558s-1.97,3.8-1.214,5.148,4.3,1.574,5.81.524,2.495-2.066,1.444-3.443a17.959,17.959,0,0,1-1.641-2.558s-.2-2.164.2-2.656,1.247-.787.952-1.509.033-1.41-.69-1.311a2,2,0,0,1-2-.591c-.886-.754-2.528-2.426-3.479-2.2A1.478,1.478,0,0,0,411.172,207.335Z" transform="translate(-357.547 -190.994)" fill="#ffbf9f"/>
          <path id="Path_80928" data-name="Path 80928" d="M428.809,237.867s5.689,8.308,5.689,10.32-.438,3.147.964,2.886,4.727,2.448,5.076,1.487-3.063-3.236-4.2-5.072-4.026-11.281-4.026-11.281Z" transform="translate(-357.556 -191.038)" fill="#ffbf9f"/>
          <path id="Path_80929" data-name="Path 80929" d="M411.463,307.006c-.463,1.437-2.564.913-4.791,1.048s-4.4-.461-4.338-1.71,2.626-1.437,3.813-2.1a1.728,1.728,0,0,0,.6-1.059,23.468,23.468,0,0,0,.452-5.236h4.065s-.126,4.061-.189,5.509a4.367,4.367,0,0,0,.3,1.669A2.826,2.826,0,0,1,411.463,307.006Z" transform="translate(-357.543 -191.129)" fill="#ffbf9f"/>
          <path id="Path_80930" data-name="Path 80930" d="M426.64,308.064c-1.9,1.133-6.9,1.49-7.616,0s1.513-1.2,3.54-2.907a2.287,2.287,0,0,0,.725-1.438c.42-2.424-1.208-6.349-1.313-6.559H426.5s.462,3.275.525,4.4a7.363,7.363,0,0,0,.873,2.581c.147.295.294.609.441.956C429,306.605,428.541,306.931,426.64,308.064Z" transform="translate(-357.551 -191.127)" fill="#ffbf9f"/>
          <path id="Path_80931" data-name="Path 80931" d="M429.5,297.605c.262,1.312-7.006,1.228-8.32.787s-2.279-14.513-2.542-18.449-3.319-19.508-3.319-19.508-2.627,13.474-3.151,15.573,1.051,18.1,1.051,20.2,0,1.659-1.67,2.362a4.488,4.488,0,0,1-1.9.147c-2.29-.179-5.483-1.165-6.061-1.815-.789-.871,1.575-14.776,2.384-19.057s.5-13.475.063-17.494,1.492-16.874,1.492-16.874l15.756-.7s-.084,1.133.967,5.425.694,20.548.609,23.611S429.237,296.293,429.5,297.605Z" transform="translate(-357.544 -191.047)" fill="#1c2b49"/>
          <path id="Path_80932" data-name="Path 80932" d="M432.99,236.5c-.2.6-4.2,2.623-4.727,1.973s-5.578-11.911-5.578-11.911-.031.378-.063,1.008a40.415,40.415,0,0,0,.326,7.756c.652,4.061,1.5,7.346,1.05,7.671a25.361,25.361,0,0,1-9.212,1.133h-.01a13.179,13.179,0,0,1-1.607-.21c-4.4-.861-6.44-.136-6.24-.8s1.7-6.622.914-10.159-1.9-4.6-2.163-6.107a9.21,9.21,0,0,1,.714-3.9.038.038,0,0,1,.011-.021s-10.7,4.722-12.143,3.674c-.116-.085-.242-.19-.389-.3-1.544-1.27-4.181-4.188-3.813-5.215a3.2,3.2,0,0,1,.252-.535,5.394,5.394,0,0,1,2.406-2.278.956.956,0,0,1,1.081.263c1.113,1.248,1.439,2.3,2.164,2.3s11.817-4.995,13.13-5.32,3.8-.651,3.8-.651-1.5,2.687,0,4.061,2.7.462,3.613-.524,1.775-.85,1.249-1.836a4.233,4.233,0,0,1-.462-2.026s5.977,1.575,6.629,2.487S433.19,235.91,432.99,236.5Z" transform="translate(-357.537 -191.006)" fill="#ed56a8"/>
          <path id="Path_80933" data-name="Path 80933" d="M413.221,296.223c0,2.1,0,1.659-1.67,2.362a4.489,4.489,0,0,1-1.9.147c1.123-4.659-1.881-15.752-.631-17.295,1.481-1.836,2.448-3.494,1.66-6.464s3.329-23.181,3.329-23.181l1.313,8.657s-2.627,13.474-3.151,15.573S413.221,294.124,413.221,296.223Z" transform="translate(-357.546 -191.061)" fill="#101e33"/>
          <path id="Path_80934" data-name="Path 80934" d="M411.379,305.134a2.826,2.826,0,0,1,.084,1.879c-.463,1.437-2.564.913-4.791,1.048s-4.4-.461-4.338-1.71,2.626-1.437,3.813-2.1a1.728,1.728,0,0,0,.6-1.059c.872.221,1.954.661,1.365,1.448C407.2,305.89,405.843,306.8,411.379,305.134Z" transform="translate(-357.543 -191.136)" fill="#ed56a8"/>
          <path id="Path_80935" data-name="Path 80935" d="M426.64,308.074c-1.9,1.133-6.9,1.49-7.616,0s1.513-1.2,3.54-2.907a2.287,2.287,0,0,0,.725-1.438c1.039.116,1.575.377,1.313.8-.915,1.438.788,2.246,2.763,0a1.347,1.347,0,0,1,.536-.378c.147.295.294.609.441.956C429,306.615,428.541,306.94,426.64,308.074Z" transform="translate(-357.551 -191.137)" fill="#ed56a8"/>
          <path id="Path_80936" data-name="Path 80936" d="M413.044,214.3a3.714,3.714,0,0,0,2.43-.23,5.661,5.661,0,0,0,1.049-.885s-1.9,3.771-2.659,3.148A3.242,3.242,0,0,1,413.044,214.3Z" transform="translate(-357.548 -191.004)" fill="#e28f79"/>
          <path id="Path_80937" data-name="Path 80937" d="M406.038,209.509l6.3,1a1.014,1.014,0,0,0,.407-1l-.066-.729-6.029-1.42-1.094,1.747Z" transform="translate(-357.545 -190.995)" fill="#ff6d33"/>
          <path id="Path_80938" data-name="Path 80938" d="M392.716,218.258a5.394,5.394,0,0,0-2.406,2.278c-.641-2.424-2.479-9.277-3.056-10.169-.7-1.091-1.754-5.205-1.05-4.555s1.344,1.67,2.048,1.617,1.492.4,1.407,1.049-.567,2.372.127,3.631C390.247,212.937,391.738,216.149,392.716,218.258Z" transform="translate(-357.535 -190.993)" fill="#ffbf9f"/>
          <path id="Path_80939" data-name="Path 80939" d="M395.077,202.676l-.168.986-.882,5.111L373.3,204.9l-1.565-.294-10.368-1.931,2.364-9.822,3.078.965,6.4,2,1.817.567Z" transform="translate(-357.522 -190.974)" fill="#ffe133"/>
          <path id="Path_80940" data-name="Path 80940" d="M395.09,203.363l11.314,3.279a2.195,2.195,0,0,1,0,2.143c-.591,1.333-.985,1.333-.985,1.333l-11.249-2.091Z" transform="translate(-357.539 -190.989)" fill="#ffa733"/>
          <path id="Rectangle_22651" data-name="Rectangle 22651" d="M1.928,0h.191A1.929,1.929,0,0,1,4.048,1.929v8.3a1.929,1.929,0,0,1-1.929,1.929H1.928A1.928,1.928,0,0,1,0,10.228v-8.3A1.928,1.928,0,0,1,1.928,0Z" transform="matrix(0.971, 0.238, -0.238, 0.971, 2.888, 0)" fill="#ffea80"/>
          <path id="Path_80941" data-name="Path 80941" d="M394.909,203.662l-.883,5.11L373.3,204.9l-1.565-.294-10.368-1.931,2.363-9.823,3.078.966c-.694,2.613-1.218,6.234.9,6.989a6.3,6.3,0,0,0,5.693-.45s-.3,1.9,9.937,4.543C391.821,207.094,394.3,204.586,394.909,203.662Z" transform="translate(-357.523 -190.974)" fill="#ffa733" opacity="0.57"/>
          <path id="Path_80942" data-name="Path 80942" d="M374.945,199.941a17.881,17.881,0,0,1-1.638,4.964l-1.565-.294a18.519,18.519,0,0,0,1.281-3.442,12.18,12.18,0,0,0,.189-5.341l1.817.566A17.767,17.767,0,0,1,374.945,199.941Z" transform="translate(-357.528 -190.978)" fill="#ff6d33" opacity="0.61"/>
          <path id="Path_80943" data-name="Path 80943" d="M407.52,219.043l-1.113,3.893s-10.7,4.722-12.143,3.674c-.116-.085-.242-.19-.389-.3a16.48,16.48,0,0,0,9.548-3.684Z" transform="translate(-357.539 -191.012)" fill="#d8419b"/>
          <path id="Path_80944" data-name="Path 80944" d="M424.011,243.006a25.363,25.363,0,0,1-9.212,1.133c.347-.147,8.12-3.347,6.387-8.416-1.775-5.184-2.826-4.2-4.664-4.523s-.263-.661,2.363-.724,2.564-8,2.564-8l1.249,4.092-.262.2s.073.3.2.808a40.418,40.418,0,0,0,.326,7.756C423.613,239.4,424.463,242.681,424.011,243.006Z" transform="translate(-357.549 -191.018)" fill="#d8419b"/>
        </g>
      </g>
    </g>
  </g>
</svg>
