<svg xmlns="http://www.w3.org/2000/svg" xmlns:xlink="http://www.w3.org/1999/xlink" width="56" height="56" viewBox="0 0 56 56">
  <defs>
    <clipPath id="clip-path">
      <rect id="Rectangle_24317" data-name="Rectangle 24317" width="24" height="23.072"/>
    </clipPath>
  </defs>
  <g id="Group_54775" data-name="Group 54775" transform="translate(-1286 -680)">
    <g id="Group_54773" data-name="Group 54773" transform="translate(537 -136)">
      <circle id="Ellipse_2336" data-name="Ellipse 2336" cx="28" cy="28" r="28" transform="translate(749 816)" fill="#2680eb"/>
      <g id="ic-chat" transform="translate(765 832)" clip-path="url(#clip-path)">
        <path id="Path_96456" data-name="Path 96456" d="M2698.152,398c-5.6,0-10.152,4.136-10.152,9.232a8.8,8.8,0,0,0,3.136,6.648,5.125,5.125,0,0,1-1.912,2.608h0a.464.464,0,0,0-.264.6.448.448,0,0,0,.52.28,7.369,7.369,0,0,0,4.536-1.728,10.066,10.066,0,0,0,1.808.56,7.492,7.492,0,0,1-.44-2.512c0-4.584,4.144-8.312,9.232-8.312a10.071,10.071,0,0,1,3.6.664C2707.568,401.5,2703.32,398,2698.152,398Zm6.464,9.232c-4.08,0-7.384,2.888-7.384,6.456s3.3,6.464,7.384,6.464a8.256,8.256,0,0,0,2.752-.472,7.128,7.128,0,0,0,4.071,1.384.465.465,0,0,0,.537-.368.472.472,0,0,0-.281-.512,5.3,5.3,0,0,1-1.712-2.064,6.048,6.048,0,0,0,2.016-4.432C2712,410.128,2708.7,407.232,2704.616,407.232Z" transform="translate(-2688 -398)" fill="#fff"/>
      </g>
    </g>
  </g>
</svg>
